<svg xmlns="http://www.w3.org/2000/svg" width="128" height="128" viewBox="0 0 128 128">
  <rect width="128" height="128" rx="22" fill="#fff5db"/>
  <path d="M20 88c10 17 78 17 88 0 2-4 3-9 2-14H18c-1 5 0 10 2 14z" fill="#e05b4f"/>
  <path d="M27 74c6-25 68-25 74 0z" fill="#f27f63"/>
  <path d="M37 69c10-14 44-18 57-3" fill="none" stroke="#ffd886" stroke-width="8" stroke-linecap="round"/>
  <path d="M45 53c6-14 18-23 33-27 7-2 14 4 13 11-3 16-14 27-29 32z" fill="#f3c067"/>
  <path d="M58 56c5-7 12-12 21-15" stroke="#9d6535" stroke-width="5" stroke-linecap="round"/>
</svg>
